<svg height="100" viewBox="0 0 100 100" width="100" xmlns="http://www.w3.org/2000/svg"><path d="m31.1785714 60.7h-8.75c-.3081275-.0057299-.6058113.1116907-.8270545.3262295-.2212431.2145388-.3477655.5084697-.3515169.8166276v17.7285715c-.0000533.3106424.1247968.6082608.34646.8258939.2216633.217633.5215222.3370016.8321114.3312489h8.75c.3105892.0057527.6104482-.1136159.8321114-.3312489.2216633-.2176331.3465133-.5152515.3464601-.8258939v-17.7357143c.0021709-.3100225-.122493-.6074564-.3450637-.8232826-.2225707-.2158261-.5236988-.3312814-.8335078-.3195746zm16.1428572-5.4642857h-8.75c-.625232.0076131-1.1313243.5105424-1.1428572 1.1357143v23.25c.0037515.308158.1302738.6020888.351517.8166276.2212431.2145388.5189269.3319594.8270545.3262295h8.7142857c.3081275.0057299.6058113-.1116907.8270545-.3262295.2212431-.2145388.3477655-.5084696.3515169-.8166276v-23.25c-.0037514-.308158-.1302738-.6020889-.3515169-.8166276-.2212432-.2145388-.518927-.3319595-.8270545-.3262296zm16.1071428-20.0785714h-8.75c-.3081275-.0057299-.6058113.1116907-.8270545.3262295-.2212431.2145388-.3477655.5084696-.3515169.8166276v43.3214286c.0037514.308158.1302738.6020888.3515169.8166276.2212432.2145388.518927.3319594.8270545.3262295h8.75c.3081276.0057299.6058114-.1116907.8270545-.3262295s.3477655-.5084696.351517-.8166276v-43.3214286c.0085279-.3119395-.1141391-.6131611-.3381642-.8303977-.2240252-.2172365-.5288778-.3305792-.8404073-.3124594zm16.1428572-13.9285715h-8.75c-.3081276-.0057299-.6058114.1116908-.8270545.3262296-.2212431.2145387-.3477655.5084696-.351517.8166276v57.25c.0037515.308158.1302739.6020888.351517.8166276s.5189269.3319594.8270545.3262295h8.75c.3081275.0057299.6058113-.1116907.8270545-.3262295.2212431-.2145388.3477655-.5084696.3515169-.8166276v-57.25c-.0037514-.308158-.1302738-.6020889-.3515169-.8166276-.2212432-.2145388-.518927-.3319595-.8270545-.3262296z" fill="#fff" fill-rule="evenodd"/></svg>