<svg enable-background="new 0 0 100 100" height="100" viewBox="0 0 100 100" width="100" xmlns="http://www.w3.org/2000/svg"><path d="m75.5 43.2-4.9-15.4c-.9-2.9-3.6-4.8-6.6-4.8h-12-16c-3 0-5.7 1.9-6.7 4.8l-4.8 15.4c-2.6.7-4.5 3-4.5 5.8v12c0 2.6 1.7 4.8 4 5.7v8.3c0 1.1.9 2 2 2h8c1.1 0 2-.9 2-2v-8h16 12v8c0 1.1.9 2 2 2h8c1.1 0 2-.9 2-2v-8.3c2.3-.8 4-3 4-5.7v-12c0-2.8-1.9-5.1-4.5-5.8zm-45.5 16.8c-2.8 0-5-2.2-5-5s2.2-5 5-5 5 2.2 5 5-2.2 5-5 5zm22-17h-19.8c-.7 0-1.2-.7-1-1.3l3.8-12c.1-.4.5-.7.9-.7h16 12c.399 0 .8.3.899.6l3.8 12.1c.2.6-.3 1.3-1 1.3zm17 17c-2.8 0-5-2.2-5-5s2.2-5 5-5 5 2.2 5 5-2.2 5-5 5z" fill="#fff"/></svg>